HIERARCHY
ROOT hip
{
  OFFSET 0.0 0.0 0.0
  CHANNELS 6 Xposition Yposition Zposition Zrotation Yrotation Xrotation
  JOINT torso
  {
    OFFSET 0.0 0.0 0.0
    CHANNELS 3 Zrotation Xrotation Yrotation
    JOINT neck
    {
      OFFSET -8.600829999999974 327.7417449999999 60.895874000000276
      CHANNELS 3 Zrotation Xrotation Yrotation
      JOINT head
      {
        OFFSET 0.7211610000001087 266.848846 239.12060599999995
        CHANNELS 3 Zrotation Xrotation Yrotation
        End Site
        {
          OFFSET 0.0 0.0 0.0
        }
      }
    }
    JOINT left_collar
    {
      OFFSET -8.600829999999974 327.7417449999999 60.895874000000276
      CHANNELS 3 Zrotation Xrotation Yrotation
      JOINT left_upper_arm
      {
        OFFSET -122.29599000000002 -5.21875 31.800903999999946
        CHANNELS 3 Zrotation Xrotation Yrotation
        JOINT left_forearm
        {
          OFFSET -195.94708199999997 63.423126000000025 226.99352999999996
          CHANNELS 3 Zrotation Xrotation Yrotation
          JOINT left_hand
          {
            OFFSET -232.19226099999992 28.282164999999964 80.86950699999989
            CHANNELS 3 Zrotation Xrotation Yrotation
            End Site
            {
              OFFSET 0.0 0.0 0.0
            }
          }
        }
      }
    }
    JOINT right_collar
    {
      OFFSET -8.600829999999974 327.7417449999999 60.895874000000276
      CHANNELS 3 Zrotation Xrotation Yrotation
      JOINT right_upper_arm
      {
        OFFSET 168.41261300000002 -11.913361000000066 -9.389160000000174
        CHANNELS 3 Zrotation Xrotation Yrotation
        JOINT right_forearm
        {
          OFFSET 213.49279800000005 104.82293699999997 83.52258300000017
          CHANNELS 3 Zrotation Xrotation Yrotation
          JOINT right_hand
          {
            OFFSET 222.067185 62.005675999999994 -110.52026300000034
            CHANNELS 3 Zrotation Xrotation Yrotation
            End Site
            {
              OFFSET 0.0 0.0 0.0
            }
          }
        }
      }
    }
  }
}
MOTION
Frames: 11
Frame Time: 0.01
-432.38691564640374 130.51782690071468 374.348106330367 3.42199780522845 -17.778933538677958 -24.650886772449528 -2.193046256792322 8.082467112408896 0.4709713401363746 -2.915953768510545 -6.365547162299697 2.660058115945413 0.0 0.0 0.0 -0.2712892901604081 -0.3367089475456244 6.724418203721206 15.937348880038025 16.880328940571307 -61.7670330880447 -47.450620593680846 -37.28303641349277 -27.51824665740818 0.0 0.0 0.0 -8.09522755663333 -0.6967787117545924 -1.7005982368526922 -80.01421359742533 24.164562604952412 -6.909858084074284 -48.97415955997904 -21.481398830619824 5.442417184653646 0.0 0.0 0.0
-432.5275764999141 130.31553931903485 374.6876234833104 3.4455938184121204 -17.86288615247281 -24.613749920499668 -2.202278038298554 8.078189910447984 0.4720134792186869 -2.9006859735602952 -6.326278077559776 2.645939385392579 0.0 0.0 0.0 -0.23959215996193706 -0.33026358806105155 6.720207659655726 16.168896732688474 17.99666993720729 -61.7682240888089 -47.68580043547162 -38.7802447925433 -29.24904765524486 0.0 0.0 0.0 -8.113891485682196 -0.7020014064720446 -1.7277750914925494 -79.99993471113234 24.188569555397187 -6.814033692141805 -48.90513765434421 -21.442442343831576 5.491764683432986 0.0 0.0 0.0
-432.6615736709247 130.10092271813764 375.04651652190785 3.4700773078405196 -17.949684664159573 -24.57914816782574 -2.2109126251535383 8.072666432208631 0.47297686797108274 -2.888829238792871 -6.285603038782993 2.6349051113760824 0.0 0.0 0.0 -0.2038588808294919 -0.3229494068106909 6.714326596002038 16.43249096323986 19.254164615356533 -61.691980405503365 -47.347282369120784 -40.25494371478463 -31.534707798693955 0.0 0.0 0.0 -8.132315762583918 -0.7076624148441476 -1.7580725351495328 -79.98883663808812 24.21456198631684 -6.7141156408548 -48.83579229264978 -21.402915707604414 5.543373511287298 0.0 0.0 0.0
-432.7880140642876 129.87433015234447 375.4237300203823 3.495756498911852 -18.03846464133186 -24.54723363567488 -2.2188506144842295 8.065564887483681 0.4738475197273336 -2.8807603000870152 -6.243965957078556 2.627299318567942 0.0 0.0 0.0 -0.16410671258150064 -0.31476751007359527 6.706775611249294 16.734137704348136 20.6608555610338 -61.52214797246589 -46.317753715282834 -41.65935156114809 -34.47973491160728 0.0 0.0 0.0 -8.150171504187242 -0.7137143766787118 -1.791316865043052 -79.98160570097633 24.242407256138637 -6.61120661776827 -48.766532836552614 -21.36309583327607 5.596766698267194 0.0 0.0 0.0
-432.9060076662428 129.6362793296534 375.817935297117 3.5229508970820858 -18.128402736807725 -24.518148310155425 -2.226037542892378 8.056657229520233 0.47461751317052153 -2.8767599875380148 -6.201795371998268 2.623378838370785 0.0 0.0 0.0 -0.12032818833285555 -0.3057150512740239 6.697587986928586 17.081357884782488 22.22242471956804 -61.24099808130621 -44.47900768498699 -42.916151269838224 -38.18427750639086 0.0 0.0 0.0 -8.167140744217075 -0.7201071961715586 -1.82731377753998 -79.97890754966689 24.271958141589323 -6.506451972313193 -48.697756369313026 -21.323263249748702 5.651419190141926 0.0 0.0 0.0
-433.014669557859 129.38745777659892 376.2275400392401 3.5519783660344872 -18.218739087960785 -24.492033693642167 -2.232465889214643 8.045836038116956 0.47528531212801167 -2.877001743298004 -6.159493007020913 2.623302877689377 0.0 0.0 0.0 -0.07247823527685553 -0.29578281944125817 6.686831743261322 17.483548313455803 23.941492967955835 -60.829069594659536 -41.73019374337712 -43.910524376795216 -42.724842637642325 0.0 0.0 0.0 -8.18292222673058 -0.7267873913977213 -1.8658413616713154 -79.98136820547542 24.303055372768675 -6.401012524413233 -48.62983978935137 -21.283698488825266 5.706759029372211 0.0 0.0 0.0
-433.1131215847164 129.12872606644427 376.6507054444482 3.58314139546148 -18.308797777008294 -24.46904089041492 -2.238174640880025 8.033128202835064 0.4758557913319342 -2.8815433166503075 -6.117423281249073 2.627125480039216 0.0 0.0 0.0 -0.02046451297037566 -0.2849534799270761 6.674611792516614 17.95236399715846 25.816836128920304 -60.265048014019314 -38.019767315161815 -44.48567274416803 -48.12127978011541 0.0 0.0 0.0 -8.197236163099863 -0.7336973545684069 -1.906642828686838 -79.9895560615373 24.33553051189922 -6.296036239291107 -48.56313219588648 -21.244678564716175 5.762169004219245 0.0 0.0 0.0
-433.20049387623857 128.86111889931522 377.0853710310501 3.6167130415604785 -18.398004758987604 -24.449340451655733 -2.243246265694061 8.018704792234887 0.47633994841327465 -2.890322050539199 -6.075904085434613 2.6347912509590152 0.0 0.0 0.0 0.035857719738999344 -0.27320072919820493 6.66107216354026 18.50208728590658 27.842547090362935 -59.52572567170855 -33.38880557729259 -44.44718095782265 -54.29227693742007 0.0 0.0 0.0 -8.209827743375538 -0.7407746126434164 -1.9494196901375391 -80.00396576321532 24.369209212709265 -6.192629628755451 -48.49794774245777 -21.20647358876757 5.816988916145247 0.0 0.0 0.0
-433.2759264957002 128.58584381081036 377.52928697534156 3.652923047956223 -18.48590267389801 -24.433131264180258 -2.247801074887603 8.002886561359757 0.47675429441410216 -2.9031540142740377 -6.035199112853553 2.6461345752367365 0.0 0.0 0.0 0.09668511039652966 -0.2604895810543097 6.646398117592009 19.14992529340811 30.00720080116456 -58.58610571038209 -28.008894254050162 -43.582067867437914 -61.0160079604965 0.0 0.0 0.0 -8.22046929385472 -0.7479511801547659 -1.9938260642346703 -80.02500473022172 24.403914855657757 -6.091829813621441 -48.434559160556105 -21.16934354643801 5.8705187094287625 0.0 0.0 0.0
-433.33857157739146 128.3042772929164 377.9800535082873 3.691944665493492 -18.572161989272537 -24.42064776393398 -2.251989139466459 7.986144649739493 0.47711993128709995 -2.9197370470318975 -5.995512008174494 2.660882381809996 0.0 0.0 0.0 0.16225935360840837 -0.2467779257358089 6.6308177934337795 19.916144280638676 32.29311193902772 -57.419735193067275 -22.182611729566844 -41.69359101564502 -67.92766775904548 0.0 0.0 0.0 -8.228961105819605 -0.7551530927086254 -2.039464703577317 -80.05298284092132 24.439472505073716 -5.994578185333162 -48.37319213038946 -21.133535240200747 5.922022750708581 0.0 0.0 0.0
-433.38759635851727 128.0179581384697 378.43516655342853 3.73388268937697 -18.656587972348746 -24.41216479171427 -2.255980110144741 7.969096152957557 0.4774613440387819 -2.9396575848606075 -5.9569825548408035 2.6786603392903716 0.0 0.0 0.0 0.2328537203739143 -0.2320194005170271 6.614602857464358 20.823909481404762 34.675809623650714 -55.99937845980241 -16.28248362954194 -38.64226415552079 -74.57769967652142 0.0 0.0 0.0 -8.23513112769236 -0.7623002018645401 -2.0858852035926083 -80.08810549779962 24.475713078974557 -5.901696542311086 -48.31402060743314 -21.099279373460803 5.970735537011546 0.0 0.0 0.0
